HIERARCHY
ROOT Hips
{
  OFFSET 13.6774 106.653 -34.4427
  CHANNELS 6 Xposition Yposition Zposition Zrotation Xrotation Yrotation
  JOINT ToSpine
  {
    OFFSET -2.69724 7.43032 -0.144315
    CHANNELS 3 Zrotation Xrotation Yrotation
    JOINT Spine
    {
      OFFSET -0.0310711 10.7595 1.96963
      CHANNELS 3 Zrotation Xrotation Yrotation
      JOINT Spine1
      {
        OFFSET 19.9056 3.91189 0.764692
        CHANNELS 3 Zrotation Xrotation Yrotation
        JOINT Neck
        {
          OFFSET 25.9749 7.03908 -0.130764
          CHANNELS 3 Zrotation Xrotation Yrotation
          JOINT Head
          {
            OFFSET 9.52751 0.295786 -0.907742
            CHANNELS 3 Zrotation Xrotation Yrotation
            End Site
            {
              OFFSET 16.4037 0.713936 2.7358
            }
          }
        }
        JOINT LeftShoulder
        {
          OFFSET 17.7449 4.33886 11.7777
          CHANNELS 3 Zrotation Xrotation Yrotation
          JOINT LeftArm
          {
            OFFSET 0.911315 1.27913 9.80584
            CHANNELS 3 Zrotation Xrotation Yrotation
            JOINT LeftForeArm
            {
              OFFSET 28.6126 1.18197 -3.53199
              CHANNELS 3 Zrotation Xrotation Yrotation
              JOINT LeftHand
              {
                OFFSET 27.5088 0.0218783 0.327423
                CHANNELS 3 Zrotation Xrotation Yrotation
                End Site
                {
                  OFFSET 18.6038 -0.000155887 0.382096
                }
              }
            }
          }
        }
        JOINT RightShoulder
        {
          OFFSET 17.1009 2.89543 -12.2328
          CHANNELS 3 Zrotation Xrotation Yrotation
          JOINT RightArm
          {
            OFFSET 1.4228 0.178766 -10.211
            CHANNELS 3 Zrotation Xrotation Yrotation
            JOINT RightForeArm
            {
              OFFSET 28.733 1.87905 2.64907
              CHANNELS 3 Zrotation Xrotation Yrotation
              JOINT RightHand
              {
                OFFSET 27.4588 0.290562 -0.101845
                CHANNELS 3 Zrotation Xrotation Yrotation
                End Site
                {
                  OFFSET 17.8396 -0.255518 -0.000602873
                }
              }
            }
          }
        }
      }
    }
  }
  JOINT LeftUpLeg
  {
    OFFSET -5.61296 -2.22332 -10.2353
    CHANNELS 3 Zrotation Xrotation Yrotation
    JOINT LeftLeg
    {
      OFFSET 2.56703 -44.7417 -7.93097
      CHANNELS 3 Zrotation Xrotation Yrotation
      JOINT LeftFoot
      {
        OFFSET 3.16933 -46.5642 -3.96578
        CHANNELS 3 Zrotation Xrotation Yrotation
        JOINT LeftToeBase
        {
          OFFSET 0.346054 -6.02161 12.8035
          CHANNELS 3 Zrotation Xrotation Yrotation
          End Site
          {
            OFFSET 0.134235 -1.35082 5.13018
          }
        }
      }
    }
  }
  JOINT RightUpLeg
  {
    OFFSET -5.7928 -1.72406 10.6446
    CHANNELS 3 Zrotation Xrotation Yrotation
    JOINT RightLeg
    {
      OFFSET -2.57161 -44.7178 -7.85259
      CHANNELS 3 Zrotation Xrotation Yrotation
      JOINT RightFoot
      {
        OFFSET -3.10148 -46.5936 -4.03391
        CHANNELS 3 Zrotation Xrotation Yrotation
        JOINT RightToeBase
        {
          OFFSET -0.0828122 -6.13587 12.8035
          CHANNELS 3 Zrotation Xrotation Yrotation
          End Site
          {
            OFFSET -0.131328 -1.35082 5.13018
          }
        }
      }
    }
  }
}
MOTION
Frames: 8
Frame Time: 0.03333333333333333
0.0000 93.1000 0.0000 72.0651 -27.3517 -6.7497 -71.0361 -0.4371 87.7777 83.8242 70.8458 1.5597 3.4919 17.7393 7.5310 -113.4325 29.7803 151.7119 -175.6243 76.9183 -154.5785 -0.1304 -14.6911 -18.3968 -67.1261 33.3542 -146.3120 23.2720 -4.5847 -98.7369 0.0352 -0.2161 -0.1700 -2.0215 5.6648 30.7158 -128.3408 -15.9302 110.1393 22.7367 -4.1925 81.9715 0.2104 0.3883 -0.4455 -48.0112 14.9244 96.3231 -3.6953 42.8481 -13.0957 -5.2410 -12.4518 -0.9271 3.4787 -11.1195 6.7104 -45.8314 -17.9962 77.3872 0.6607 34.5073 0.5401 -5.0707 1.8187 -0.3075 0.1424 -13.2514 0.1128 
0.0000 93.1000 0.0000 72.6214 -28.7760 -8.3290 -70.8615 1.7351 87.7253 82.2404 69.9644 1.2532 5.1814 17.0965 8.3910 -113.0299 29.0439 151.3064 -177.5955 76.4027 -153.7102 1.8839 -16.1368 -19.4003 -67.9500 34.4067 -146.5430 21.6827 -3.9594 -98.2164 0.2416 -2.6443 -0.5449 -2.3308 6.2723 32.0447 -128.1841 -13.7539 109.2356 24.8498 -3.3675 81.6783 -0.2635 3.2972 -1.3881 -48.0486 14.3537 96.2107 -4.5537 43.4096 -11.5644 -5.2767 -13.8110 0.3968 3.4962 -9.8210 7.8032 -43.5503 -18.4201 78.3154 0.6203 34.8899 1.4983 -2.6335 3.6684 -0.5020 0.1450 -14.6325 -6.2573 
0.0000 93.1000 0.0000 71.2966 -33.1949 -8.5411 -70.9980 -0.7848 88.2555 81.7958 70.9164 -0.3305 5.7767 17.1572 9.0191 -112.1272 29.0837 152.6357 175.5151 76.4495 -146.2308 -0.5873 -16.8229 -19.9962 -70.1250 35.6196 -146.1429 21.5270 -3.6460 -96.8805 -0.3702 0.1270 -0.0344 -2.3756 5.7898 33.0061 -130.5826 -11.7475 108.3446 28.0777 -4.2475 83.0675 0.8570 -0.0245 -0.7146 -48.6602 14.0846 97.6093 -3.4904 45.2715 -10.6159 -4.6929 -16.3468 -1.3272 1.9395 -8.3141 6.8198 -40.8587 -18.4760 79.4740 0.7072 35.3358 1.3387 -1.6470 6.3219 -1.1999 2.7031 -15.8015 -7.5817 
0.0000 93.1000 0.0000 71.0862 -33.6548 -9.0071 -71.0148 -0.3492 88.3518 83.8209 71.1491 -3.0728 5.0652 17.6163 9.0661 -112.6824 28.1205 152.2582 176.2487 75.3563 -147.1890 -0.1734 -17.4242 -21.2471 -69.8898 33.8868 -145.2183 19.3394 -3.1417 -98.4146 0.0527 -0.0348 0.2882 -2.3722 5.7067 35.7638 -130.0707 -10.8203 107.7499 27.9158 -3.4957 83.8792 0.7090 0.1666 -0.6873 -48.2230 14.4332 99.1031 -3.8567 47.1491 -11.4988 -4.6780 -17.4537 -1.5175 2.6508 -8.5442 8.4144 -41.1233 -16.9727 80.2707 0.1437 34.4322 4.3264 0.2509 5.6889 -1.0301 2.3504 -16.2959 -8.1742 
0.0000 93.1000 0.0000 71.3331 -35.4226 -9.3120 -70.8803 -0.0977 88.2514 84.0542 71.3059 -2.5744 5.5204 18.9228 7.1935 -112.9242 27.9659 151.8577 176.4146 74.7944 -147.0792 -0.0194 -17.4492 -22.5703 -69.1527 32.7456 -144.9503 19.5520 -3.0295 -98.5987 -0.3143 0.0452 0.2720 -2.1992 6.0006 37.7650 -131.5391 -9.4173 105.9872 28.7130 -2.6282 84.4369 0.7106 0.1141 -0.2106 -47.6739 14.8921 99.2364 -4.0050 47.8971 -10.3864 -4.2771 -18.1119 -1.9798 2.6774 -10.0876 10.7164 -40.6287 -16.3489 79.2896 1.4430 32.4418 4.0829 0.6255 5.3194 -0.6622 1.1624 -13.5153 -8.2571 
0.0000 93.1000 0.0000 70.9901 -37.4585 -9.4505 -70.9287 0.1939 88.2500 81.0081 72.0727 0.2825 5.9014 19.4479 6.7753 -112.9911 28.3854 153.2387 174.9791 74.4038 -147.0294 0.2033 -17.4876 -23.9029 -69.2934 33.5777 -144.0999 20.9023 -3.2457 -97.7086 0.2308 -0.2600 -0.0155 -2.1466 6.3401 38.9638 -133.2469 -9.2904 104.3511 29.6562 -2.4563 85.7181 0.5955 0.5047 -0.0281 -47.1229 14.8646 99.2561 -3.9591 48.7838 -9.1839 -3.5656 -20.0359 -2.0515 2.4768 -9.5372 10.6462 -42.2711 -15.7675 77.9098 0.1909 30.8973 2.9611 -1.1945 5.1028 -0.2640 0.8262 -11.8582 -1.9543 
0.0000 93.1000 0.0000 70.9389 -38.0820 -9.1141 -70.9656 -0.1272 88.0704 82.1505 72.3816 -0.2423 5.0301 19.6216 7.1495 -113.9298 28.1283 153.0601 175.9975 73.9658 -147.9756 -0.1859 -17.1980 -25.2016 -67.2690 33.6557 -144.1562 21.9952 -4.1297 -97.2448 -0.1209 0.1515 0.2109 -2.1768 6.4252 40.4173 -133.5917 -7.7741 102.0737 29.8383 -2.0731 87.1048 0.7282 0.0456 0.2831 -47.2082 15.0235 99.8001 -4.8860 50.0463 -8.7772 -3.2379 -18.7933 -2.1909 3.2151 -9.7328 10.7290 -42.0449 -15.7565 78.0199 0.5495 30.0364 5.6657 0.8317 5.8270 -0.6972 1.0735 -10.3126 -2.7269 
0.0000 93.1000 0.0000 71.0146 -39.4651 -9.8312 -70.8085 0.1184 88.1515 84.4792 72.2800 -1.8903 4.7745 19.9120 6.5118 -114.0124 28.1469 155.4017 173.6954 73.0709 -145.1472 0.0095 -16.9073 -25.3029 -65.1999 35.3420 -142.9846 23.3554 -4.3918 -96.9110 0.0573 0.1031 0.1478 -2.1184 6.9802 41.3992 -133.3470 -7.4694 100.8021 30.2733 -2.1190 87.6849 1.1498 0.0801 0.3089 -46.9301 15.1399 100.0928 -5.1666 52.2021 -8.6470 -2.2586 -19.1470 -2.5874 3.7508 -12.0147 12.1752 -42.1584 -16.1423 78.0613 0.4819 30.2422 5.7864 1.2265 6.1938 -0.5369 0.6432 -8.7335 1.0413 
